# Blender 4.1.1
# www.blender.org
mtllib Light 1.mtl
o Cube
v 0.000000 0.000000 2.246762
v -1.000000 1.035392 2.246762
v 0.000000 0.000000 -2.246762
v -1.000000 1.035392 -2.246762
v -0.863408 1.035392 -1.939872
v 1.000000 1.035392 2.246762
v -0.863408 1.035392 1.939872
v 1.000000 1.035392 -2.246762
v 0.863408 1.035392 -1.939872
v 0.863408 1.035392 1.939872
v 0.863408 0.929217 -1.939872
v 0.863408 0.929217 1.939872
v -0.863408 0.929217 -1.939872
v -0.863408 0.929217 1.939872
vn -0.7193 -0.6947 -0.0000
vn -0.0000 -0.0000 -1.0000
vn 0.7193 -0.6947 -0.0000
vn -0.0000 -0.0000 1.0000
vn -0.0000 1.0000 -0.0000
vn -1.0000 -0.0000 -0.0000
vn 1.0000 -0.0000 -0.0000
vt 0.764414 0.664873
vt 0.551429 0.664873
vt 0.551429 -0.000000
vt 0.764414 -0.000000
vt 0.295925 0.787042
vt 0.295925 0.574056
vt 0.508782 0.779637
vt 0.977400 0.664873
vt 0.977400 0.000000
vt -0.000000 0.877858
vt -0.000000 0.664873
vt 0.212857 0.870454
vt 0.508782 0.829560
vt 0.508782 0.574056
vt 0.524492 0.574056
vt 0.524492 0.829560
vt 0.000000 0.664873
vt 0.000000 0.000000
vt 0.020211 0.045408
vt 0.020211 0.619465
vt 0.295925 0.000000
vt 0.275714 0.045408
vt 0.295925 0.664873
vt 0.275714 0.619465
vt 0.551429 0.574056
vt 0.295925 0.574056
vt 0.295925 0.000000
vt 0.551429 0.000000
vt 0.977400 0.574056
vt 0.977400 0.000000
vt 0.988700 0.000000
vt 0.988700 0.574056
vt 0.524492 0.829560
vt 0.524492 0.574056
vt 0.540202 0.574056
vt 0.540202 0.829560
vt 0.988700 0.574056
vt 0.988700 0.000000
vt 1.000000 0.000000
vt 1.000000 0.574056
s 0
usemtl Cube
f 1/1/1 2/2/1 4/3/1 3/4/1
f 3/5/2 4/6/2 8/7/2
f 3/8/3 8/1/3 6/4/3 1/9/3
f 1/10/4 6/11/4 2/12/4
f 9/13/4 5/14/4 13/15/4 11/16/4
f 4/17/5 2/18/5 7/19/5 5/20/5
f 2/18/5 6/21/5 10/22/5 7/19/5
f 8/23/5 4/17/5 5/20/5 9/24/5
f 6/21/5 8/23/5 9/24/5 10/22/5
f 11/25/5 13/26/5 14/27/5 12/28/5
f 10/29/6 9/30/6 11/31/6 12/32/6
f 7/33/2 10/34/2 12/35/2 14/36/2
f 5/37/7 7/38/7 14/39/7 13/40/7
