# Blender 4.1.1
# www.blender.org
mtllib Platform.mtl
o Platform
v -1.000000 7.099314 1.000000
v -1.000000 7.099314 -1.000000
v 1.000000 7.099314 1.000000
v 1.000000 7.099314 -1.000000
v -0.763041 7.003737 -0.763041
v -0.763041 7.003737 0.763041
v 0.763041 7.003737 -0.763041
v 0.763041 7.003737 0.763041
v -0.548343 6.930418 -0.548343
v -0.385163 6.907717 -0.481871
v -0.481871 6.907717 -0.385163
v -0.481871 6.907717 0.385163
v -0.385163 6.907717 0.481871
v -0.548343 6.930418 0.548343
v 0.548343 6.930418 -0.548343
v 0.481871 6.907717 -0.385163
v 0.385163 6.907717 -0.481871
v 0.548343 6.930418 0.548343
v 0.385163 6.907717 0.481871
v 0.481871 6.907717 0.385163
v -0.103278 6.770608 -0.264016
v -0.259716 6.770608 -0.113659
v -0.264016 6.770608 0.103278
v -0.113659 6.770608 0.259716
v 0.264016 6.770608 -0.103278
v 0.113659 6.770608 -0.259716
v 0.103278 6.770608 0.264016
v 0.259716 6.770608 0.113659
v 0.000000 -0.000067 -0.082788
v -0.000000 6.767043 -0.226770
v 0.016151 -0.000067 -0.081197
v 0.044241 6.767043 -0.222413
v 0.031681 -0.000067 -0.076486
v 0.086781 6.767043 -0.209508
v 0.045994 -0.000067 -0.068835
v 0.125987 6.767043 -0.188552
v 0.058540 -0.000067 -0.058540
v 0.160351 6.767043 -0.160351
v 0.068835 -0.000067 -0.045994
v 0.188552 6.767043 -0.125987
v 0.076486 -0.000067 -0.031681
v 0.209508 6.767043 -0.086781
v 0.081197 -0.000067 -0.016151
v 0.222413 6.767043 -0.044241
v 0.082788 -0.000067 0.000000
v 0.226770 6.767043 0.000000
v 0.081197 -0.000067 0.016151
v 0.222413 6.767043 0.044241
v 0.076486 -0.000067 0.031681
v 0.209508 6.767043 0.086781
v 0.068835 -0.000067 0.045994
v 0.188552 6.767043 0.125987
v 0.058540 -0.000067 0.058540
v 0.160351 6.767043 0.160351
v 0.045994 -0.000067 0.068835
v 0.125987 6.767043 0.188552
v 0.031681 -0.000067 0.076486
v 0.086781 6.767043 0.209508
v 0.016151 -0.000067 0.081197
v 0.044241 6.767043 0.222413
v 0.000000 -0.000067 0.082788
v -0.000000 6.767043 0.226770
v -0.016151 -0.000067 0.081197
v -0.044241 6.767043 0.222413
v -0.031681 -0.000067 0.076486
v -0.086781 6.767043 0.209508
v -0.045994 -0.000067 0.068835
v -0.125987 6.767043 0.188552
v -0.058540 -0.000067 0.058540
v -0.160351 6.767043 0.160351
v -0.068835 -0.000067 0.045994
v -0.188552 6.767043 0.125987
v -0.076486 -0.000067 0.031681
v -0.209508 6.767043 0.086781
v -0.081197 -0.000067 0.016151
v -0.222413 6.767043 0.044241
v -0.082788 -0.000067 0.000000
v -0.226770 6.767043 0.000000
v -0.081197 -0.000067 -0.016151
v -0.222413 6.767043 -0.044241
v -0.076486 -0.000067 -0.031681
v -0.209508 6.767043 -0.086781
v -0.068835 -0.000067 -0.045994
v -0.188552 6.767043 -0.125987
v -0.058540 -0.000067 -0.058540
v -0.160351 6.767043 -0.160351
v -0.045994 -0.000067 -0.068835
v -0.125987 6.767043 -0.188552
v -0.031681 -0.000067 -0.076486
v -0.086781 6.767043 -0.209508
v -0.016151 -0.000067 -0.081197
v -0.044241 6.767043 -0.222413
v 0.000000 6.691781 -0.082788
v 0.016151 6.691781 -0.081197
v 0.031681 6.691781 -0.076486
v 0.045994 6.691781 -0.068835
v 0.058540 6.691781 -0.058540
v 0.068835 6.691781 -0.045994
v 0.076486 6.691781 -0.031681
v 0.081197 6.691781 -0.016151
v 0.082788 6.691781 0.000000
v 0.081197 6.691781 0.016151
v 0.076486 6.691781 0.031681
v 0.068835 6.691781 0.045994
v 0.058540 6.691781 0.058540
v 0.045994 6.691781 0.068835
v 0.031681 6.691781 0.076486
v 0.016151 6.691781 0.081197
v 0.000000 6.691781 0.082788
v -0.016151 6.691781 0.081197
v -0.031681 6.691781 0.076486
v -0.045994 6.691781 0.068835
v -0.058540 6.691781 0.058540
v -0.068835 6.691781 0.045994
v -0.076486 6.691781 0.031681
v -0.081197 6.691781 0.016151
v -0.082788 6.691781 0.000000
v -0.081197 6.691781 -0.016151
v -0.076486 6.691781 -0.031681
v -0.068835 6.691781 -0.045994
v -0.058540 6.691781 -0.058540
v -0.045994 6.691781 -0.068835
v -0.031681 6.691781 -0.076486
v -0.016151 6.691781 -0.081197
v -0.964826 7.157262 0.964826
v -1.000000 7.122087 1.000000
v -0.964826 7.157262 -0.964826
v -1.000000 7.122087 -1.000000
v 0.964826 7.157262 0.964826
v 1.000000 7.122087 1.000000
v 0.964826 7.157262 -0.964826
v 1.000000 7.122087 -1.000000
vn -0.0000 1.0000 -0.0000
vn 1.0000 -0.0000 -0.0000
vn -1.0000 -0.0000 -0.0000
vn -0.0000 -0.9274 -0.3741
vn -0.0000 -0.0000 -1.0000
vn -0.0000 -0.9463 0.3232
vn -0.3741 -0.9274 -0.0000
vn 0.3741 -0.9274 -0.0000
vn -0.0000 -0.9274 0.3741
vn -0.0000 -0.9463 -0.3232
vn 0.3232 -0.9463 -0.0000
vn -0.3232 -0.9463 -0.0000
vn -0.0979 -0.9904 -0.0979
vn -0.0979 -0.9904 0.0979
vn 0.0979 -0.9904 -0.0979
vn 0.0979 -0.9904 0.0979
vn 0.5289 -0.8487 0.0023
vn -0.0000 -1.0000 -0.0000
vn -0.5289 -0.8487 -0.0023
vn 0.2603 -0.9315 -0.2541
vn -0.0023 -0.8487 0.5289
vn -0.2603 -0.9315 0.2541
vn 0.0023 -0.8487 -0.5289
vn -0.2541 -0.9315 -0.2603
vn 0.2541 -0.9315 0.2603
vn -0.0000 -0.8862 -0.4632
vn 0.0904 -0.8862 -0.4543
vn 0.1773 -0.8862 -0.4280
vn 0.2574 -0.8862 -0.3852
vn 0.3276 -0.8862 -0.3276
vn 0.3852 -0.8862 -0.2574
vn 0.4280 -0.8862 -0.1773
vn 0.4543 -0.8862 -0.0904
vn 0.4632 -0.8862 -0.0000
vn 0.4543 -0.8862 0.0904
vn 0.4280 -0.8862 0.1773
vn 0.3852 -0.8862 0.2574
vn 0.3276 -0.8862 0.3276
vn 0.2574 -0.8862 0.3852
vn 0.1773 -0.8862 0.4280
vn 0.0904 -0.8862 0.4543
vn -0.0000 -0.8862 0.4632
vn -0.0904 -0.8862 0.4543
vn -0.1773 -0.8862 0.4280
vn -0.2574 -0.8862 0.3852
vn -0.3276 -0.8862 0.3276
vn -0.3852 -0.8862 0.2574
vn -0.4280 -0.8862 0.1773
vn -0.4543 -0.8862 0.0904
vn -0.4632 -0.8862 -0.0000
vn -0.4543 -0.8862 -0.0904
vn -0.4280 -0.8862 -0.1773
vn -0.3852 -0.8862 -0.2574
vn -0.3276 -0.8862 -0.3276
vn -0.2574 -0.8862 -0.3852
vn -0.1773 -0.8862 -0.4280
vn -0.0904 -0.8862 -0.4543
vn -0.1951 -0.0000 -0.9808
vn -0.3827 -0.0000 -0.9239
vn -0.5556 -0.0000 -0.8315
vn -0.7071 -0.0000 -0.7071
vn -0.8315 -0.0000 -0.5556
vn -0.9239 -0.0000 -0.3827
vn -0.9808 -0.0000 -0.1951
vn -0.9808 -0.0000 0.1951
vn -0.9239 -0.0000 0.3827
vn -0.8315 -0.0000 0.5556
vn -0.7071 -0.0000 0.7071
vn -0.5556 -0.0000 0.8315
vn -0.3827 -0.0000 0.9239
vn -0.1951 -0.0000 0.9808
vn -0.0000 -0.0000 1.0000
vn 0.1951 -0.0000 0.9808
vn 0.3827 -0.0000 0.9239
vn 0.5556 -0.0000 0.8315
vn 0.7071 -0.0000 0.7071
vn 0.8315 -0.0000 0.5556
vn 0.9239 -0.0000 0.3827
vn 0.9808 -0.0000 0.1951
vn 0.9808 -0.0000 -0.1951
vn 0.9239 -0.0000 -0.3827
vn 0.8315 -0.0000 -0.5556
vn 0.7071 -0.0000 -0.7071
vn 0.5556 -0.0000 -0.8315
vn 0.3827 -0.0000 -0.9239
vn 0.1951 -0.0000 -0.9808
vn -0.7071 0.7071 -0.0000
vn -0.0000 0.7071 -0.7071
vn 0.7071 0.7071 -0.0000
vn -0.0000 0.7071 0.7071
vt 0.300928 0.607243
vt 0.005387 0.607243
vt 0.005387 0.311702
vt 0.300928 0.311702
vt 0.455700 0.431109
vt 0.452212 0.431109
vt 0.452212 0.236785
vt 0.455700 0.236785
vt 0.386571 0.375042
vt 0.383083 0.375042
vt 0.383083 0.138257
vt 0.386571 0.138257
vt 0.306315 0.306315
vt 0.000000 0.306315
vt 0.036292 0.270023
vt 0.270023 0.270023
vt 0.395447 0.375042
vt 0.391959 0.375042
vt 0.391959 0.138257
vt 0.395447 0.138257
vt 0.036292 0.036292
vt 0.270023 0.036292
vt 0.237140 0.069175
vt 0.212148 0.079355
vt 0.094167 0.079355
vt 0.069175 0.069175
vt 0.306315 0.000000
vt 0.000000 0.000000
vt 0.069175 0.237140
vt 0.094167 0.226960
vt 0.212148 0.226960
vt 0.237140 0.237140
vt 0.079355 0.094167
vt 0.079355 0.212148
vt 0.226960 0.212148
vt 0.226960 0.094167
vt 0.113380 0.135750
vt 0.112721 0.168975
vt 0.192935 0.170565
vt 0.168975 0.193593
vt 0.135750 0.192935
vt 0.137340 0.112721
vt 0.170565 0.113380
vt 0.193593 0.137340
vt 0.424879 0.035807
vt 0.446825 0.037969
vt 0.445496 0.044646
vt 0.424394 0.038245
vt 0.442891 0.050937
vt 0.423443 0.040541
vt 0.439108 0.056598
vt 0.422062 0.042608
vt 0.434294 0.061412
vt 0.420304 0.044366
vt 0.428633 0.065195
vt 0.418238 0.045747
vt 0.422343 0.067800
vt 0.415941 0.046698
vt 0.415665 0.069129
vt 0.413503 0.047183
vt 0.408856 0.069129
vt 0.411018 0.047183
vt 0.402178 0.067800
vt 0.408580 0.046698
vt 0.395888 0.065195
vt 0.406283 0.045747
vt 0.390227 0.061412
vt 0.404217 0.044366
vt 0.385413 0.056598
vt 0.402459 0.042608
vt 0.381630 0.050937
vt 0.401078 0.040541
vt 0.379025 0.044646
vt 0.400127 0.038245
vt 0.377696 0.037969
vt 0.399642 0.035807
vt 0.377696 0.031160
vt 0.399642 0.033321
vt 0.379025 0.024482
vt 0.400127 0.030884
vt 0.381630 0.018192
vt 0.401078 0.028587
vt 0.385413 0.012531
vt 0.402459 0.026520
vt 0.390227 0.007716
vt 0.404217 0.024763
vt 0.395888 0.003934
vt 0.406283 0.023382
vt 0.402178 0.001328
vt 0.408580 0.022431
vt 0.408856 0.000000
vt 0.411018 0.021946
vt 0.415665 0.000000
vt 0.413503 0.021946
vt 0.422343 0.001328
vt 0.415941 0.022431
vt 0.428633 0.003934
vt 0.418238 0.023382
vt 0.434294 0.007716
vt 0.420304 0.024763
vt 0.439108 0.012531
vt 0.422062 0.026520
vt 0.442891 0.018192
vt 0.423443 0.028587
vt 0.445496 0.024482
vt 0.424394 0.030884
vt 0.446825 0.100289
vt 0.446825 0.107097
vt 0.445496 0.113775
vt 0.442891 0.120065
vt 0.439108 0.125726
vt 0.434294 0.130541
vt 0.428633 0.134323
vt 0.422342 0.136929
vt 0.415665 0.138257
vt 0.408856 0.138257
vt 0.402178 0.136929
vt 0.395888 0.134323
vt 0.390227 0.130541
vt 0.385413 0.125726
vt 0.381630 0.120065
vt 0.379024 0.113775
vt 0.377696 0.107097
vt 0.377696 0.100289
vt 0.379025 0.093611
vt 0.381630 0.087320
vt 0.385413 0.081659
vt 0.390227 0.076845
vt 0.395888 0.073062
vt 0.402178 0.070457
vt 0.408856 0.069129
vt 0.422343 0.070457
vt 0.428633 0.073062
vt 0.434294 0.076845
vt 0.439108 0.081659
vt 0.442891 0.087321
vt 0.445496 0.093611
vt 0.446825 0.031160
vt 0.424879 0.033321
vt 0.402933 0.388903
vt 0.402448 0.391341
vt 0.401497 0.393637
vt 0.400116 0.395704
vt 0.398358 0.397462
vt 0.396292 0.398843
vt 0.393995 0.399794
vt 0.391557 0.400279
vt 0.389072 0.400279
vt 0.386634 0.399794
vt 0.384338 0.398843
vt 0.382271 0.397462
vt 0.380513 0.395704
vt 0.379132 0.393637
vt 0.378181 0.391341
vt 0.377696 0.388903
vt 0.377696 0.386417
vt 0.378181 0.383980
vt 0.379132 0.381683
vt 0.380513 0.379616
vt 0.382271 0.377859
vt 0.384338 0.376478
vt 0.386634 0.375527
vt 0.389072 0.375042
vt 0.391557 0.375042
vt 0.393995 0.375527
vt 0.396292 0.376478
vt 0.398358 0.377859
vt 0.400116 0.379616
vt 0.401497 0.381683
vt 0.402448 0.383980
vt 0.402933 0.386417
vt 0.322093 1.000000
vt 0.322094 0.000000
vt 0.324160 0.000000
vt 0.324160 1.000000
vt 0.319797 1.000000
vt 0.319797 0.000000
vt 0.317359 1.000000
vt 0.317359 0.000000
vt 0.314874 1.000000
vt 0.314874 0.000000
vt 0.312436 1.000000
vt 0.312436 -0.000000
vt 0.310139 1.000000
vt 0.310139 -0.000000
vt 0.308073 1.000000
vt 0.308073 -0.000000
vt 0.306315 1.000000
vt 0.306315 -0.000000
vt 0.339939 1.000000
vt 0.339939 0.000000
vt 0.342006 0.000000
vt 0.342005 1.000000
vt 0.337642 1.000000
vt 0.337642 0.000000
vt 0.335204 1.000000
vt 0.335205 0.000000
vt 0.332719 1.000000
vt 0.332719 0.000000
vt 0.330281 1.000000
vt 0.330281 0.000000
vt 0.327985 1.000000
vt 0.327985 0.000000
vt 0.325918 1.000000
vt 0.325918 0.000000
vt 0.324160 1.000000
vt 0.324160 0.000000
vt 0.357784 1.000000
vt 0.357784 -0.000000
vt 0.359851 -0.000000
vt 0.359851 1.000000
vt 0.355488 1.000000
vt 0.355488 -0.000000
vt 0.353050 1.000000
vt 0.353050 -0.000000
vt 0.350564 1.000000
vt 0.350564 -0.000000
vt 0.348126 1.000000
vt 0.348126 -0.000000
vt 0.345830 1.000000
vt 0.345830 -0.000000
vt 0.343763 1.000000
vt 0.343763 -0.000000
vt 0.342006 1.000000
vt 0.342006 -0.000000
vt 0.375938 1.000000
vt 0.375939 0.000000
vt 0.377696 0.000000
vt 0.377696 1.000000
vt 0.373872 1.000000
vt 0.373872 0.000000
vt 0.371575 1.000000
vt 0.371575 0.000000
vt 0.369137 1.000000
vt 0.369138 0.000000
vt 0.366652 1.000000
vt 0.366652 0.000000
vt 0.364214 1.000000
vt 0.364214 -0.000000
vt 0.361918 1.000000
vt 0.361918 -0.000000
vt 0.359851 1.000000
vt 0.359851 -0.000000
vt 0.000000 0.612630
vt 0.000000 0.306315
vt 0.306315 0.612630
vt 0.306315 0.306315
vt 0.452212 -0.000000
vt 0.455700 -0.000000
s 0
usemtl Cube.002
f 131/1/1 127/2/1 125/3/1 129/4/1
f 4/5/2 132/6/2 130/7/2 3/8/2
f 1/9/3 126/10/3 128/11/3 2/12/3
f 2/13/4 4/14/4 7/15/4 5/16/4
f 2/17/5 128/18/5 132/19/5 4/20/5
f 8/21/6 6/22/6 14/23/6 13/24/6 19/25/6 18/26/6
f 1/27/7 2/13/7 5/16/7 6/22/7
f 4/14/8 3/28/8 8/21/8 7/15/8
f 3/28/9 1/27/9 6/22/9 8/21/9
f 5/16/10 7/15/10 15/29/10 17/30/10 10/31/10 9/32/10
f 7/15/11 8/21/11 18/26/11 20/33/11 16/34/11 15/29/11
f 6/22/12 5/16/12 9/32/12 11/35/12 12/36/12 14/23/12
f 9/32/13 10/31/13 11/35/13
f 12/36/14 13/24/14 14/23/14
f 15/29/15 16/34/15 17/30/15
f 18/26/16 19/25/16 20/33/16
f 16/34/17 20/33/17 28/37/17 25/38/17
f 22/39/18 21/40/18 26/41/18 25/38/18 28/37/18 27/42/18 24/43/18 23/44/18
f 12/36/19 11/35/19 22/39/19 23/44/19
f 17/30/20 16/34/20 25/38/20 26/41/20
f 19/25/21 13/24/21 24/43/21 27/42/21
f 13/24/22 12/36/22 23/44/22 24/43/22
f 10/31/23 17/30/23 26/41/23 21/40/23
f 11/35/24 10/31/24 21/40/24 22/39/24
f 20/33/25 19/25/25 27/42/25 28/37/25
s 1
f 93/45/26 30/46/26 32/47/27 94/48/27
f 94/48/27 32/47/27 34/49/28 95/50/28
f 95/50/28 34/49/28 36/51/29 96/52/29
f 96/52/29 36/51/29 38/53/30 97/54/30
f 97/54/30 38/53/30 40/55/31 98/56/31
f 98/56/31 40/55/31 42/57/32 99/58/32
f 99/58/32 42/57/32 44/59/33 100/60/33
f 100/60/33 44/59/33 46/61/34 101/62/34
f 101/62/34 46/61/34 48/63/35 102/64/35
f 102/64/35 48/63/35 50/65/36 103/66/36
f 103/66/36 50/65/36 52/67/37 104/68/37
f 104/68/37 52/67/37 54/69/38 105/70/38
f 105/70/38 54/69/38 56/71/39 106/72/39
f 106/72/39 56/71/39 58/73/40 107/74/40
f 107/74/40 58/73/40 60/75/41 108/76/41
f 108/76/41 60/75/41 62/77/42 109/78/42
f 109/78/42 62/77/42 64/79/43 110/80/43
f 110/80/43 64/79/43 66/81/44 111/82/44
f 111/82/44 66/81/44 68/83/45 112/84/45
f 112/84/45 68/83/45 70/85/46 113/86/46
f 113/86/46 70/85/46 72/87/47 114/88/47
f 114/88/47 72/87/47 74/89/48 115/90/48
f 115/90/48 74/89/48 76/91/49 116/92/49
f 116/92/49 76/91/49 78/93/50 117/94/50
f 117/94/50 78/93/50 80/95/51 118/96/51
f 118/96/51 80/95/51 82/97/52 119/98/52
f 119/98/52 82/97/52 84/99/53 120/100/53
f 120/100/53 84/99/53 86/101/54 121/102/54
f 121/102/54 86/101/54 88/103/55 122/104/55
f 122/104/55 88/103/55 90/105/56 123/106/56
f 32/107/1 30/108/1 92/109/1 90/110/1 88/111/1 86/112/1 84/113/1 82/114/1 80/115/1 78/116/1 76/117/1 74/118/1 72/119/1 70/120/1 68/121/1 66/122/1 64/123/1 62/124/1 60/125/1 58/126/1 56/127/1 54/128/1 52/129/1 50/130/1 48/131/1 46/59/1 44/132/1 42/133/1 40/134/1 38/135/1 36/136/1 34/137/1
f 123/106/56 90/105/56 92/138/57 124/139/57
f 124/139/57 92/138/57 30/46/26 93/45/26
f 29/140/18 31/141/18 33/142/18 35/143/18 37/144/18 39/145/18 41/146/18 43/147/18 45/148/18 47/149/18 49/150/18 51/151/18 53/152/18 55/153/18 57/154/18 59/155/18 61/156/18 63/157/18 65/158/18 67/159/18 69/160/18 71/161/18 73/162/18 75/163/18 77/164/18 79/165/18 81/166/18 83/167/18 85/168/18 87/169/18 89/170/18 91/171/18
f 91/172/58 124/173/58 93/174/5 29/175/5
f 89/176/59 123/177/59 124/173/58 91/172/58
f 87/178/60 122/179/60 123/177/59 89/176/59
f 85/180/61 121/181/61 122/179/60 87/178/60
f 83/182/62 120/183/62 121/181/61 85/180/61
f 81/184/63 119/185/63 120/183/62 83/182/62
f 79/186/64 118/187/64 119/185/63 81/184/63
f 77/188/3 117/189/3 118/187/64 79/186/64
f 75/190/65 116/191/65 117/192/3 77/193/3
f 73/194/66 115/195/66 116/191/65 75/190/65
f 71/196/67 114/197/67 115/195/66 73/194/66
f 69/198/68 113/199/68 114/197/67 71/196/67
f 67/200/69 112/201/69 113/199/68 69/198/68
f 65/202/70 111/203/70 112/201/69 67/200/69
f 63/204/71 110/205/71 111/203/70 65/202/70
f 61/206/72 109/207/72 110/205/71 63/204/71
f 59/208/73 108/209/73 109/210/72 61/211/72
f 57/212/74 107/213/74 108/209/73 59/208/73
f 55/214/75 106/215/75 107/213/74 57/212/74
f 53/216/76 105/217/76 106/215/75 55/214/75
f 51/218/77 104/219/77 105/217/76 53/216/76
f 49/220/78 103/221/78 104/219/77 51/218/77
f 47/222/79 102/223/79 103/221/78 49/220/78
f 45/224/2 101/225/2 102/223/79 47/222/79
f 43/226/80 100/227/80 101/228/2 45/229/2
f 41/230/81 99/231/81 100/227/80 43/226/80
f 39/232/82 98/233/82 99/231/81 41/230/81
f 37/234/83 97/235/83 98/233/82 39/232/82
f 35/236/84 96/237/84 97/235/83 37/234/83
f 33/238/85 95/239/85 96/237/84 35/236/84
f 31/240/86 94/241/86 95/239/85 33/238/85
f 29/242/5 93/243/5 94/241/86 31/240/86
s 0
f 125/3/87 127/2/87 128/244/87 126/245/87
f 127/2/88 131/1/88 132/246/88 128/244/88
f 131/1/89 129/4/89 130/247/89 132/246/89
f 129/4/90 125/3/90 126/245/90 130/247/90
f 3/8/72 130/7/72 126/248/72 1/249/72
